<svg xmlns="http://www.w3.org/2000/svg" xmlns:xlink="http://www.w3.org/1999/xlink" width="500" zoomAndPan="magnify" viewBox="0 0 375 374.999991" height="500" preserveAspectRatio="xMidYMid meet" version="1.0"><defs><g/><clipPath id="id1"><path d="M 32 123.625 L 111 123.625 L 111 162 L 32 162 Z M 32 123.625 " clip-rule="nonzero"/></clipPath><clipPath id="id2"><path d="M 30.390625 165 L 115.710938 165 L 115.710938 175 L 30.390625 175 Z M 30.390625 165 " clip-rule="nonzero"/></clipPath><clipPath id="id3"><path d="M 30.390625 175 L 115.710938 175 L 115.710938 184 L 30.390625 184 Z M 30.390625 175 " clip-rule="nonzero"/></clipPath><clipPath id="id4"><path d="M 32 189 L 111 189 L 111 209.875 L 32 209.875 Z M 32 189 " clip-rule="nonzero"/></clipPath></defs><g fill="#8b0808" fill-opacity="1"><g transform="translate(151.27498, 197.533084)"><g><path d="M 14.09375 -47.890625 C 18.007812 -47.890625 20.84375 -46.972656 22.59375 -45.140625 C 24.351562 -43.316406 25.234375 -40.5625 25.234375 -36.875 L 25.234375 -35.15625 C 25.234375 -32.695312 24.847656 -30.664062 24.078125 -29.0625 C 23.304688 -27.46875 22.078125 -26.285156 20.390625 -25.515625 C 22.441406 -24.742188 23.890625 -23.476562 24.734375 -21.71875 C 25.578125 -19.957031 26 -17.800781 26 -15.25 L 26 -11.359375 C 26 -7.660156 25.039062 -4.84375 23.125 -2.90625 C 21.207031 -0.96875 18.359375 0 14.578125 0 L 2.734375 0 L 2.734375 -47.890625 Z M 10.265625 -21.546875 L 10.265625 -6.84375 L 14.578125 -6.84375 C 15.847656 -6.84375 16.8125 -7.179688 17.46875 -7.859375 C 18.132812 -8.546875 18.46875 -9.78125 18.46875 -11.5625 L 18.46875 -15.734375 C 18.46875 -17.960938 18.09375 -19.488281 17.34375 -20.3125 C 16.59375 -21.132812 15.347656 -21.546875 13.609375 -21.546875 Z M 10.265625 -41.046875 L 10.265625 -28.390625 L 13.203125 -28.390625 C 14.617188 -28.390625 15.722656 -28.753906 16.515625 -29.484375 C 17.316406 -30.210938 17.71875 -31.535156 17.71875 -33.453125 L 17.71875 -36.125 C 17.71875 -37.851562 17.410156 -39.101562 16.796875 -39.875 C 16.179688 -40.65625 15.210938 -41.046875 13.890625 -41.046875 Z M 10.265625 -41.046875 "/></g></g></g><g fill="#8b0808" fill-opacity="1"><g transform="translate(179.041561, 197.533084)"><g><path d="M 9.921875 -47.890625 L 9.921875 -10.9375 C 9.921875 -9.207031 10.273438 -8 10.984375 -7.3125 C 11.691406 -6.632812 12.632812 -6.296875 13.8125 -6.296875 C 15 -6.296875 15.945312 -6.632812 16.65625 -7.3125 C 17.363281 -8 17.71875 -9.207031 17.71875 -10.9375 L 17.71875 -47.890625 L 24.828125 -47.890625 L 24.828125 -11.421875 C 24.828125 -7.546875 23.878906 -4.570312 21.984375 -2.5 C 20.097656 -0.425781 17.304688 0.609375 13.609375 0.609375 C 9.921875 0.609375 7.128906 -0.425781 5.234375 -2.5 C 3.335938 -4.570312 2.390625 -7.546875 2.390625 -11.421875 L 2.390625 -47.890625 Z M 9.921875 -47.890625 "/></g></g></g><g fill="#8b0808" fill-opacity="1"><g transform="translate(206.261023, 197.533084)"><g><path d="M 18.46875 0 C 18.375 -0.320312 18.28125 -0.617188 18.1875 -0.890625 C 18.101562 -1.160156 18.023438 -1.5 17.953125 -1.90625 C 17.890625 -2.320312 17.84375 -2.847656 17.8125 -3.484375 C 17.789062 -4.128906 17.78125 -4.929688 17.78125 -5.890625 L 17.78125 -13.40625 C 17.78125 -15.644531 17.390625 -17.21875 16.609375 -18.125 C 15.835938 -19.039062 14.585938 -19.5 12.859375 -19.5 L 10.265625 -19.5 L 10.265625 0 L 2.734375 0 L 2.734375 -47.890625 L 14.09375 -47.890625 C 18.007812 -47.890625 20.84375 -46.972656 22.59375 -45.140625 C 24.351562 -43.316406 25.234375 -40.5625 25.234375 -36.875 L 25.234375 -33.109375 C 25.234375 -28.179688 23.59375 -24.941406 20.3125 -23.390625 C 22.226562 -22.617188 23.539062 -21.351562 24.25 -19.59375 C 24.957031 -17.84375 25.3125 -15.710938 25.3125 -13.203125 L 25.3125 -5.8125 C 25.3125 -4.625 25.351562 -3.585938 25.4375 -2.703125 C 25.53125 -1.816406 25.757812 -0.914062 26.125 0 Z M 10.265625 -41.046875 L 10.265625 -26.34375 L 13.203125 -26.34375 C 14.617188 -26.34375 15.722656 -26.707031 16.515625 -27.4375 C 17.316406 -28.164062 17.71875 -29.488281 17.71875 -31.40625 L 17.71875 -36.125 C 17.71875 -37.851562 17.410156 -39.101562 16.796875 -39.875 C 16.179688 -40.65625 15.210938 -41.046875 13.890625 -41.046875 Z M 10.265625 -41.046875 "/></g></g></g><g fill="#8b0808" fill-opacity="1"><g transform="translate(233.754044, 197.533084)"><g><path d="M 14.015625 -26.671875 L 24.5625 -26.671875 L 24.5625 -11.5 C 24.5625 -7.613281 23.613281 -4.632812 21.71875 -2.5625 C 19.820312 -0.488281 17.03125 0.546875 13.34375 0.546875 C 9.644531 0.546875 6.847656 -0.488281 4.953125 -2.5625 C 3.066406 -4.632812 2.125 -7.613281 2.125 -11.5 L 2.125 -36.390625 C 2.125 -40.265625 3.066406 -43.238281 4.953125 -45.3125 C 6.847656 -47.394531 9.644531 -48.4375 13.34375 -48.4375 C 17.03125 -48.4375 19.820312 -47.394531 21.71875 -45.3125 C 23.613281 -43.238281 24.5625 -40.265625 24.5625 -36.390625 L 24.5625 -31.734375 L 17.4375 -31.734375 L 17.4375 -36.875 C 17.4375 -38.601562 17.082031 -39.820312 16.375 -40.53125 C 15.675781 -41.238281 14.734375 -41.59375 13.546875 -41.59375 C 12.359375 -41.59375 11.410156 -41.238281 10.703125 -40.53125 C 9.992188 -39.820312 9.640625 -38.601562 9.640625 -36.875 L 9.640625 -11.015625 C 9.640625 -9.273438 9.992188 -8.0625 10.703125 -7.375 C 11.410156 -6.695312 12.359375 -6.359375 13.546875 -6.359375 C 14.734375 -6.359375 15.675781 -6.695312 16.375 -7.375 C 17.082031 -8.0625 17.4375 -9.273438 17.4375 -11.015625 L 17.4375 -19.84375 L 14.015625 -19.84375 Z M 14.015625 -26.671875 "/></g></g></g><g fill="#8b0808" fill-opacity="1"><g transform="translate(260.426375, 197.533084)"><g><path d="M 10.265625 -27.703125 L 20.59375 -27.703125 L 20.59375 -20.859375 L 10.265625 -20.859375 L 10.265625 -6.84375 L 23.265625 -6.84375 L 23.265625 0 L 2.734375 0 L 2.734375 -47.890625 L 23.265625 -47.890625 L 23.265625 -41.046875 L 10.265625 -41.046875 Z M 10.265625 -27.703125 "/></g></g></g><g fill="#8b0808" fill-opacity="1"><g transform="translate(285.594117, 197.533084)"><g><path d="M 18.46875 0 C 18.375 -0.320312 18.28125 -0.617188 18.1875 -0.890625 C 18.101562 -1.160156 18.023438 -1.5 17.953125 -1.90625 C 17.890625 -2.320312 17.84375 -2.847656 17.8125 -3.484375 C 17.789062 -4.128906 17.78125 -4.929688 17.78125 -5.890625 L 17.78125 -13.40625 C 17.78125 -15.644531 17.390625 -17.21875 16.609375 -18.125 C 15.835938 -19.039062 14.585938 -19.5 12.859375 -19.5 L 10.265625 -19.5 L 10.265625 0 L 2.734375 0 L 2.734375 -47.890625 L 14.09375 -47.890625 C 18.007812 -47.890625 20.84375 -46.972656 22.59375 -45.140625 C 24.351562 -43.316406 25.234375 -40.5625 25.234375 -36.875 L 25.234375 -33.109375 C 25.234375 -28.179688 23.59375 -24.941406 20.3125 -23.390625 C 22.226562 -22.617188 23.539062 -21.351562 24.25 -19.59375 C 24.957031 -17.84375 25.3125 -15.710938 25.3125 -13.203125 L 25.3125 -5.8125 C 25.3125 -4.625 25.351562 -3.585938 25.4375 -2.703125 C 25.53125 -1.816406 25.757812 -0.914062 26.125 0 Z M 10.265625 -41.046875 L 10.265625 -26.34375 L 13.203125 -26.34375 C 14.617188 -26.34375 15.722656 -26.707031 16.515625 -27.4375 C 17.316406 -28.164062 17.71875 -29.488281 17.71875 -31.40625 L 17.71875 -36.125 C 17.71875 -37.851562 17.410156 -39.101562 16.796875 -39.875 C 16.179688 -40.65625 15.210938 -41.046875 13.890625 -41.046875 Z M 10.265625 -41.046875 "/></g></g></g><g fill="#8b0808" fill-opacity="1"><g transform="translate(313.087138, 197.533084)"><g><path d="M 1.78125 -36.390625 C 1.78125 -40.265625 2.703125 -43.238281 4.546875 -45.3125 C 6.390625 -47.394531 9.160156 -48.4375 12.859375 -48.4375 C 16.554688 -48.4375 19.328125 -47.394531 21.171875 -45.3125 C 23.015625 -43.238281 23.9375 -40.265625 23.9375 -36.390625 L 23.9375 -34.890625 L 16.828125 -34.890625 L 16.828125 -36.875 C 16.828125 -38.601562 16.492188 -39.820312 15.828125 -40.53125 C 15.171875 -41.238281 14.25 -41.59375 13.0625 -41.59375 C 11.875 -41.59375 10.945312 -41.238281 10.28125 -40.53125 C 9.625 -39.820312 9.296875 -38.601562 9.296875 -36.875 C 9.296875 -35.226562 9.660156 -33.773438 10.390625 -32.515625 C 11.128906 -31.265625 12.046875 -30.082031 13.140625 -28.96875 C 14.234375 -27.851562 15.40625 -26.734375 16.65625 -25.609375 C 17.90625 -24.492188 19.078125 -23.273438 20.171875 -21.953125 C 21.273438 -20.628906 22.191406 -19.125 22.921875 -17.4375 C 23.648438 -15.75 24.015625 -13.769531 24.015625 -11.5 C 24.015625 -7.613281 23.066406 -4.632812 21.171875 -2.5625 C 19.273438 -0.488281 16.484375 0.546875 12.796875 0.546875 C 9.097656 0.546875 6.300781 -0.488281 4.40625 -2.5625 C 2.519531 -4.632812 1.578125 -7.613281 1.578125 -11.5 L 1.578125 -14.4375 L 8.6875 -14.4375 L 8.6875 -11.015625 C 8.6875 -9.273438 9.039062 -8.0625 9.75 -7.375 C 10.457031 -6.695312 11.40625 -6.359375 12.59375 -6.359375 C 13.769531 -6.359375 14.710938 -6.695312 15.421875 -7.375 C 16.128906 -8.0625 16.484375 -9.273438 16.484375 -11.015625 C 16.484375 -12.648438 16.117188 -14.09375 15.390625 -15.34375 C 14.660156 -16.601562 13.75 -17.789062 12.65625 -18.90625 C 11.5625 -20.03125 10.382812 -21.148438 9.125 -22.265625 C 7.875 -23.378906 6.703125 -24.597656 5.609375 -25.921875 C 4.515625 -27.242188 3.601562 -28.75 2.875 -30.4375 C 2.144531 -32.125 1.78125 -34.109375 1.78125 -36.390625 Z M 1.78125 -36.390625 "/></g></g></g><g clip-path="url(#id1)"><path fill="#8b0808" d="M 34.261719 161.039062 L 108.15625 161.039062 C 109.320312 161.039062 110.261719 160.097656 110.261719 158.929688 C 110.261719 139.464844 92.742188 123.625 71.207031 123.625 C 49.675781 123.625 32.15625 139.464844 32.15625 158.929688 C 32.15625 160.097656 33.097656 161.039062 34.261719 161.039062 Z M 71.207031 127.839844 C 89.625 127.839844 104.75 140.660156 105.972656 156.824219 L 36.445312 156.824219 C 37.664062 140.660156 52.789062 127.839844 71.207031 127.839844 Z M 71.207031 127.839844 " fill-opacity="1" fill-rule="nonzero"/></g><g clip-path="url(#id2)"><path fill="#8b0808" d="M 32.339844 174.136719 C 32.609375 174.136719 32.882812 174.085938 33.144531 173.976562 L 42.503906 170.09375 L 51.863281 173.976562 C 52.382812 174.191406 52.960938 174.191406 53.476562 173.976562 L 62.828125 170.097656 L 72.171875 173.976562 C 72.6875 174.191406 73.269531 174.191406 73.785156 173.976562 L 83.128906 170.097656 L 92.472656 173.976562 C 92.988281 174.191406 93.570312 174.191406 94.085938 173.976562 L 103.433594 170.097656 L 112.777344 173.976562 C 113.847656 174.417969 115.082031 173.914062 115.527344 172.835938 C 115.976562 171.761719 115.464844 170.53125 114.390625 170.082031 L 104.238281 165.867188 C 103.722656 165.65625 103.140625 165.65625 102.625 165.867188 L 93.28125 169.746094 L 83.933594 165.867188 C 83.417969 165.65625 82.835938 165.65625 82.320312 165.867188 L 72.980469 169.746094 L 63.636719 165.867188 C 63.121094 165.65625 62.539062 165.65625 62.023438 165.867188 L 52.667969 169.75 L 43.308594 165.867188 C 42.792969 165.65625 42.214844 165.65625 41.699219 165.867188 L 31.53125 170.082031 C 30.457031 170.527344 29.945312 171.761719 30.390625 172.835938 C 30.730469 173.648438 31.511719 174.136719 32.339844 174.136719 Z M 32.339844 174.136719 " fill-opacity="1" fill-rule="nonzero"/></g><g clip-path="url(#id3)"><path fill="#8b0808" d="M 114.390625 179.914062 L 104.238281 175.699219 C 103.726562 175.484375 103.140625 175.484375 102.628906 175.699219 L 93.28125 179.578125 L 83.9375 175.699219 C 83.421875 175.484375 82.839844 175.484375 82.320312 175.699219 L 72.980469 179.578125 L 63.636719 175.699219 C 63.121094 175.484375 62.539062 175.484375 62.023438 175.699219 L 52.671875 179.582031 L 43.3125 175.699219 C 42.792969 175.484375 42.214844 175.484375 41.699219 175.699219 L 31.53125 179.914062 C 30.457031 180.359375 29.949219 181.589844 30.390625 182.667969 C 30.730469 183.476562 31.511719 183.96875 32.339844 183.96875 C 32.605469 183.96875 32.882812 183.917969 33.144531 183.808594 L 42.503906 179.925781 L 51.863281 183.808594 C 52.378906 184.023438 52.960938 184.023438 53.476562 183.808594 L 62.828125 179.929688 L 72.171875 183.808594 C 72.6875 184.023438 73.269531 184.023438 73.785156 183.808594 L 83.128906 179.929688 L 92.472656 183.808594 C 92.988281 184.023438 93.570312 184.023438 94.085938 183.808594 L 103.433594 179.929688 L 112.777344 183.808594 C 113.847656 184.253906 115.082031 183.742188 115.527344 182.667969 C 115.976562 181.59375 115.464844 180.359375 114.390625 179.914062 Z M 114.390625 179.914062 " fill-opacity="1" fill-rule="nonzero"/></g><path fill="#8b0808" d="M 56.597656 132.445312 C 55.996094 132.695312 41.800781 138.6875 40.871094 150.46875 C 40.78125 151.628906 41.644531 152.644531 42.804688 152.734375 C 42.863281 152.738281 42.917969 152.742188 42.972656 152.742188 C 44.0625 152.742188 44.984375 151.902344 45.070312 150.800781 C 45.796875 141.605469 58.085938 136.390625 58.207031 136.339844 C 59.28125 135.894531 59.792969 134.660156 59.347656 133.585938 C 58.902344 132.511719 57.671875 132.007812 56.597656 132.445312 Z M 56.597656 132.445312 " fill-opacity="1" fill-rule="nonzero"/><g clip-path="url(#id4)"><path fill="#8b0808" d="M 101.992188 189.019531 L 40.425781 189.019531 C 35.863281 189.019531 32.15625 192.734375 32.15625 197.296875 L 32.15625 201.597656 C 32.15625 206.160156 35.863281 209.875 40.425781 209.875 L 101.992188 209.875 C 106.554688 209.875 110.261719 206.164062 110.261719 201.601562 L 110.261719 197.296875 C 110.261719 192.734375 106.554688 189.019531 101.992188 189.019531 Z M 106.050781 201.601562 C 106.050781 203.835938 104.230469 205.660156 101.992188 205.660156 L 40.425781 205.660156 C 38.1875 205.660156 36.367188 203.835938 36.367188 201.597656 L 36.367188 197.296875 C 36.367188 195.054688 38.1875 193.234375 40.425781 193.234375 L 101.992188 193.234375 C 104.230469 193.234375 106.050781 195.054688 106.050781 197.296875 Z M 106.050781 201.601562 " fill-opacity="1" fill-rule="nonzero"/></g></svg>