<svg xmlns="http://www.w3.org/2000/svg" xmlns:xlink="http://www.w3.org/1999/xlink" width="500" zoomAndPan="magnify" viewBox="0 0 375 374.999991" height="500" preserveAspectRatio="xMidYMid meet" version="1.0"><defs><clipPath id="id1"><path d="M 43 24.800781 L 328 24.800781 L 328 161 L 43 161 Z M 43 24.800781 " clip-rule="nonzero"/></clipPath><clipPath id="id2"><path d="M 37.5 177 L 347.25 177 L 347.25 208 L 37.5 208 Z M 37.5 177 " clip-rule="nonzero"/></clipPath><clipPath id="id3"><path d="M 37.5 213 L 347.25 213 L 347.25 244 L 37.5 244 Z M 37.5 213 " clip-rule="nonzero"/></clipPath><clipPath id="id4"><path d="M 43 261 L 328 261 L 328 337.550781 L 43 337.550781 Z M 43 261 " clip-rule="nonzero"/></clipPath></defs><g clip-path="url(#id1)"><path fill="#8b0808" d="M 51.570312 160.472656 L 319.90625 160.472656 C 324.136719 160.472656 327.554688 157.054688 327.554688 152.828125 C 327.554688 82.238281 263.9375 24.800781 185.738281 24.800781 C 107.542969 24.800781 43.925781 82.238281 43.925781 152.832031 C 43.925781 157.054688 47.347656 160.472656 51.570312 160.472656 Z M 185.738281 40.085938 C 252.625 40.085938 307.546875 86.574219 311.976562 145.191406 L 59.507812 145.191406 C 63.929688 86.574219 118.859375 40.085938 185.738281 40.085938 Z M 185.738281 40.085938 " fill-opacity="1" fill-rule="nonzero"/></g><g clip-path="url(#id2)"><path fill="#8b0808" d="M 44.589844 207.96875 C 45.5625 207.96875 46.558594 207.78125 47.511719 207.386719 L 81.503906 193.3125 L 115.492188 207.386719 C 117.371094 208.164062 119.476562 208.164062 121.347656 207.386719 L 155.308594 193.320312 L 189.242188 207.386719 C 191.113281 208.164062 193.226562 208.164062 195.101562 207.386719 L 229.027344 193.320312 L 262.960938 207.386719 C 264.828125 208.164062 266.949219 208.164062 268.816406 207.386719 L 302.757812 193.320312 L 336.691406 207.386719 C 340.582031 208.992188 345.058594 207.15625 346.683594 203.253906 C 348.304688 199.359375 346.453125 194.886719 342.546875 193.269531 L 305.683594 177.988281 C 303.816406 177.210938 301.695312 177.210938 299.832031 177.988281 L 265.890625 192.054688 L 231.953125 177.988281 C 230.082031 177.210938 227.96875 177.210938 226.09375 177.988281 L 192.167969 192.054688 L 158.238281 177.988281 C 156.363281 177.210938 154.257812 177.210938 152.382812 177.988281 L 118.417969 192.0625 L 84.425781 177.988281 C 82.554688 177.210938 80.445312 177.210938 78.574219 177.988281 L 41.65625 193.269531 C 37.753906 194.882812 35.902344 199.351562 37.515625 203.253906 C 38.742188 206.195312 41.585938 207.96875 44.589844 207.96875 Z M 44.589844 207.96875 " fill-opacity="1" fill-rule="nonzero"/></g><g clip-path="url(#id3)"><path fill="#8b0808" d="M 342.550781 228.917969 L 305.691406 213.632812 C 303.824219 212.859375 301.703125 212.859375 299.835938 213.632812 L 265.894531 227.699219 L 231.960938 213.632812 C 230.085938 212.859375 227.972656 212.859375 226.097656 213.632812 L 192.175781 227.699219 L 158.242188 213.632812 C 156.371094 212.859375 154.261719 212.859375 152.386719 213.632812 L 118.421875 227.707031 L 84.433594 213.632812 C 82.558594 212.859375 80.453125 212.859375 78.578125 213.632812 L 41.660156 228.917969 C 37.753906 230.527344 35.90625 235 37.519531 238.898438 C 38.742188 241.839844 41.585938 243.617188 44.585938 243.617188 C 45.5625 243.617188 46.558594 243.429688 47.511719 243.035156 L 81.5 228.960938 L 115.492188 243.035156 C 117.367188 243.8125 119.476562 243.8125 121.34375 243.035156 L 155.308594 228.96875 L 189.238281 243.035156 C 191.113281 243.8125 193.226562 243.8125 195.101562 243.035156 L 229.023438 228.96875 L 262.960938 243.035156 C 264.828125 243.8125 266.949219 243.8125 268.816406 243.035156 L 302.757812 228.96875 L 336.691406 243.035156 C 340.582031 244.644531 345.054688 242.804688 346.683594 238.898438 C 348.308594 235.003906 346.457031 230.535156 342.550781 228.917969 Z M 342.550781 228.917969 " fill-opacity="1" fill-rule="nonzero"/></g><path fill="#8b0808" d="M 132.6875 56.785156 C 130.492188 57.695312 78.953125 79.425781 75.574219 122.140625 C 75.242188 126.347656 78.386719 130.027344 82.597656 130.363281 C 82.800781 130.378906 83.003906 130.386719 83.207031 130.386719 C 87.15625 130.386719 90.503906 127.347656 90.824219 123.351562 C 93.460938 90.007812 138.082031 71.097656 138.53125 70.914062 C 142.425781 69.292969 144.277344 64.824219 142.667969 60.929688 C 141.046875 57.039062 136.582031 55.203125 132.6875 56.785156 Z M 132.6875 56.785156 " fill-opacity="1" fill-rule="nonzero"/><g clip-path="url(#id4)"><path fill="#8b0808" d="M 297.535156 261.9375 L 73.949219 261.9375 C 57.390625 261.9375 43.921875 275.398438 43.921875 291.941406 L 43.921875 307.546875 C 43.921875 324.089844 57.390625 337.550781 73.949219 337.550781 L 297.535156 337.550781 C 314.089844 337.550781 327.554688 324.097656 327.554688 307.554688 L 327.554688 291.941406 C 327.554688 275.398438 314.089844 261.9375 297.535156 261.9375 Z M 312.261719 307.554688 C 312.261719 315.664062 305.652344 322.269531 297.535156 322.269531 L 73.949219 322.269531 C 65.828125 322.269531 59.21875 315.664062 59.21875 307.546875 L 59.21875 291.941406 C 59.21875 283.824219 65.828125 277.222656 73.949219 277.222656 L 297.535156 277.222656 C 305.652344 277.222656 312.261719 283.824219 312.261719 291.941406 Z M 312.261719 307.554688 " fill-opacity="1" fill-rule="nonzero"/></g></svg>